<?xml version="1.0" encoding="UTF-8" standalone="no"?>
<!-- Created with Inkscape (http://www.inkscape.org/) -->

<svg
   width="116.10323mm"
   height="33.848957mm"
   viewBox="0 0 116.10323 33.848957"
   version="1.1"
   id="svg1"
   xmlns="http://www.w3.org/2000/svg"
   xmlns:svg="http://www.w3.org/2000/svg">
  <defs
     id="defs1">
    <clipPath
       clipPathUnits="userSpaceOnUse"
       id="clipPath57583-1">
      <path
         id="path57584-5"
         style="fill:#ff0000;fill-opacity:1;fill-rule:nonzero;stroke:none;stroke-width:0.264583"
         d="M 11.109399,5.4978557 V 188.30685 c 0.369432,-0.19735 0.73444,-0.41174 1.1436,-0.4625 0.897889,-0.11144 1.58878,0.41782 2.15284,1.04903 1.002471,0.0893 1.999126,0.19113 2.998783,0.28939 2.828994,-1.50169 5.801586,-2.65774 8.963278,-3.33313 2.691526,-0.49396 5.409807,-0.92978 8.156608,-0.87488 1.362969,-0.004 2.726296,-0.009 4.089157,-0.0279 1.22619,-0.0193 2.452796,-0.0391 3.677811,-0.0992 1.845384,-0.0978 3.687152,-0.36914 5.540746,-0.21652 1.877282,0.0811 3.752643,0.21122 5.617744,0.44545 1.263348,0.16101 2.521654,0.35471 3.779615,0.55139 2.582201,-1.81836 5.366475,-3.34601 8.250661,-4.67207 3.833802,-1.70816 7.889113,-2.77841 11.997717,-3.56774 2.792256,-0.50687 5.621999,-0.72894 8.453231,-0.85783 3.215301,-0.0826 6.425422,0.16354 9.626285,0.44597 9.468445,-3.88817 19.475375,-6.215 29.454535,-8.36022 6.32306,-1.39781 12.71138,-2.46489 19.13423,-3.2768 2.07489,-0.25852 4.15814,-0.37673 6.24251,-0.38705 2.08439,-0.0103 4.16992,0.0872 6.24923,0.26096 4.43876,0.44403 8.56602,1.77586 12.59717,3.63957 3.51157,1.53515 6.70821,3.62235 9.75082,5.93142 2.31507,1.69411 4.48174,3.57251 6.59133,5.51285 0.0979,0.0915 0.19121,0.1878 0.28887,0.27956 2.19255,-0.24526 4.38811,-0.46722 6.5903,-0.63975 1.95582,-0.18566 3.90992,-0.38226 5.85907,-0.62994 0.7228,-0.0918 1.44373,-0.19678 2.1637,-0.31005 V 5.4978557 Z M 194.45325,183.25341 c -0.004,0.001 -0.008,0.002 -0.0114,0.004 0.13348,-7.9e-4 0.26711,0.006 0.4005,0.002 0.12961,-0.003 -0.18885,-0.002 -0.38912,-0.006 z M 20.69176,222.83704 c -2.814551,0.7175 -6.026468,1.8314 -9.299174,3.00396 0.282226,0.32606 0.56554,0.65121 0.876949,0.95188 h 15.663128 c -2.497446,-1.3244 -4.967495,-2.64564 -7.240903,-3.95584 z m 158.77842,2.39882 c -1.25782,0.33797 -2.51128,0.69205 -3.75326,1.08573 -0.47698,0.1691 -0.96095,0.31239 -1.44074,0.47129 h 18.91358 c 0.23251,-0.20368 0.45201,-0.41405 0.66197,-0.62839 -0.69919,0.005 -1.39819,0.0139 -2.09806,-5.3e-4 -1.81367,-0.0158 -3.62797,-0.0343 -5.43946,-0.13229 -2.29391,-0.14009 -4.58309,-0.37446 -6.84403,-0.79582 z m 21.00906,0.42375 c -0.40247,0.0636 -0.80705,0.11071 -1.21078,0.16537 -0.17436,0.32435 -0.33819,0.65493 -0.53124,0.9679 h 1.74202 z" />
    </clipPath>
  </defs>
  <g
     id="layer1"
     style="display:inline"
     transform="translate(-14.389535,-76.165714)">
    <path
       id="path57570"
       clip-path="url(#clipPath57583-1)"
       style="fill:#800000;stroke:none;stroke-width:3.52719"
       d="m 150.40581,5.4978556 -9.10436,6.4399174 -65.551035,21.569226 -39.149032,13.12478 c 1.35056,7.134684 5.519887,14.277308 12.745992,15.305526 l 2.731617,-0.956531 v 0.956531 h -2.731617 v 0.95653 l -4.552176,0.957048 v 0.956531 L 75.750415,56.077197 86.67533,52.37148 89.406429,53.328011 109.43621,46.631779 C 91.677542,74.840182 62.954188,94.445676 48.437354,125.0735 c -0.333444,0.0652 -0.668309,0.16358 -1.002523,0.28939 l -0.818555,2.5802 h -0.910539 l 1.599903,-2.52129 c -4.866079,1.94038 -9.621081,9.91674 -9.793718,14.95723 -7.866201,4.19711 -10.613522,14.65801 -15.458488,21.75423 -2.123891,3.11071 -4.936222,4.89576 -5.880261,8.85837 -1.695657,7.11737 3.62976,13.37519 10.413835,13.26379 8.733713,-0.14353 18.587489,-5.44707 26.402522,-9.14621 17.472347,-8.27028 34.200806,-18.38027 51.89451,-26.12037 l -0.91054,-1.91358 24.58196,-11.07219 52.80505,-18.58233 v -0.95653 c -22.08587,1.01177 -42.60277,17.1547 -64.64102,17.21859 v 0.95653 l -4.55218,0.95704 4.55218,-1.91357 v -0.95653 l 23.67142,-9.23665 35.50688,-14.67817 v -0.95705 l -12.74599,1.91358 v 0.95653 l -5.46272,0.95653 5.46272,-1.91306 v -0.95653 l 24.58144,-7.0156 8.19382,-5.420337 c -12.78381,3.774667 -26.276,4.617537 -39.14852,8.365897 -32.87224,9.57216 -67.925225,23.29145 -97.416272,41.37732 21.248778,-35.85217 51.206022,-66.075437 77.646942,-97.57389 7.53022,-8.970573 19.499,-16.605725 25.32507,-26.784928 C 166.04134,15.283 156.7565,8.991468 151.31635,10.280509 l -5.46272,0.956531 z M 47.30564,125.4218 c 0.04315,-0.0172 0.08602,-0.0427 0.129191,-0.0589 l 0.09198,-0.28939 z M 64.824984,53.328011 v 0.956531 l -3.641638,0.956531 v -0.956531 z m -14.56707,4.783171 v 0.95653 l -4.552177,0.956531 z m 9.104354,0.95653 v 0.956531 h -2.731099 z m 96.506252,52.932168 c 0.7041,0 0.14554,0.4762 -0.30386,0.31885 z m -2.73161,0.95653 0.30334,0.31885 c -0.44933,0.15728 -1.0074,-0.31885 -0.30334,-0.31885 z m -2.7311,0.95653 c 0.7041,0 0.14554,0.4762 -0.30386,0.31885 z m -2.73162,0.95653 c 0.7041,0 0.14605,0.4762 -0.30334,0.31885 z m -2.7311,0.95705 c 0.7041,0 0.14605,0.47617 -0.30334,0.31885 z m -84.670283,79.07941 v 12.43594 h 5.462715 v -0.95653 h -4.552176 z m 20.939807,0 c 0,6.42653 1.48867,9.88911 3.119189,10.48773 -0.381383,-0.19776 -0.803271,-0.59738 -1.276924,-1.28209 -1.702472,-2.46109 -0.728102,-6.41575 -1.842265,-9.20564 z m 3.119189,10.48773 c 0.352126,0.1826 0.662709,0.16356 0.944129,0.0155 -0.314449,0.0985 -0.630703,0.0996 -0.944129,-0.0155 z m 0.944129,0.0155 c 1.669535,-0.52281 3.220475,-4.01254 3.220475,-10.50324 h -0.910539 c -1.32e-4,1.32237 -0.336076,9.46478 -2.309936,10.50324 z M 103.9735,194.90593 v 0.95653 h 2.73161 v 11.47941 h 0.91003 c 0,-4.19567 -0.94007,-8.9783 2.73161,-11.47941 z m 20.93981,0 v 12.43594 h 0.91053 z m 44.61123,0 v 12.43594 h 0.91053 v -8.60981 l 8.19382,7.65328 v -11.47941 h -0.91002 v 9.56583 h -0.91054 z m -22.11907,0.17157 c -0.75517,0.0796 -1.53889,0.33775 -2.3275,0.81494 -6.39123,3.86726 -0.48947,14.45382 6.03012,10.32081 5.47968,-3.47377 1.58359,-11.69271 -3.70262,-11.13575 z m -109.292034,0.0537 c -0.754237,0.0663 -1.536514,0.30712 -2.323373,0.7612 -7.049307,4.06803 -0.411735,14.42779 6.066297,10.32081 5.446828,-3.45321 1.536733,-11.5463 -3.742924,-11.08201 z m 159.422314,0.18035 c -0.50308,-0.0184 -0.78366,0.2563 -0.92863,0.69402 l 3.87212,0.81338 c -1.36378,-1.03697 -2.31315,-1.48433 -2.94349,-1.5074 z m -0.92863,0.69402 -0.68006,-0.14315 c 0.15595,0.3605 0.40296,0.75212 0.61805,1.13223 -0.0118,-0.36793 -0.0231,-0.73222 0.062,-0.98908 z m -0.062,0.98908 c 0.0772,2.40934 1.9596,6.76882 3.0241,8.4336 l -5.46271,-0.95653 c 1.24919,2.018 5.7633,4.21786 5.79499,-0.1416 0.0177,-2.44825 -2.05778,-5.0405 -3.35638,-7.33547 z m -181.319683,-1.1007 c -0.417268,0.0786 -0.833813,0.16133 -1.250569,0.24288 l 2.597257,0.68212 c -0.518691,-0.40195 -0.954278,-0.69211 -1.346688,-0.925 z m 23.435779,0.31626 c 5.234184,-9e-4 6.450765,8.84227 0.63562,9.76684 -5.769977,0.9174 -7.321246,-8.42633 -1.734778,-9.64385 0.383765,-0.0836 0.750212,-0.12293 1.099158,-0.12299 z m 109.177834,0.063 c 4.92016,-0.5134 6.86276,7.61063 1.6061,9.49244 -5.9189,2.11888 -8.34291,-7.40318 -2.62878,-9.27023 0.35323,-0.11541 0.69467,-0.18798 1.02268,-0.22221 z m -134.673952,0.0207 c -0.05817,0.0117 -0.116506,0.0224 -0.174666,0.0341 -0.0686,2.21973 2.553563,7.51062 3.581693,9.10022 l -5.462716,-0.95653 c 1.259751,2.04428 5.546637,4.18007 5.689576,-0.1416 0.08949,-2.70555 -2.4306,-5.59079 -3.633887,-8.0362 z m 16.153019,23.48384 1.821078,6.69623 h 0.910022 l 0.910538,-5.7397 z m 7.283276,0 -0.910022,1.91306 z m 4.552177,1.91306 -1.82056,4.78317 z m -6.372737,0.95653 0.910538,0.95653 z m 0.910538,1.91306 2.7311,1.91358 v -0.95705 z"
       transform="matrix(0.16822545,0,0,0.15317925,12.52065,75.323557)" />
  </g>
  <g
     id="layer2"
     transform="translate(-14.389535,-76.165714)">
    <text
       xml:space="preserve"
       style="font-style:normal;font-variant:normal;font-weight:normal;font-stretch:normal;font-size:21.3226px;font-family:'Beast Energy';-inkscape-font-specification:'Beast Energy, Normal';font-variant-ligatures:normal;font-variant-caps:all-small-caps;font-variant-numeric:normal;font-variant-east-asian:normal;fill:#ffffff;stroke:none;stroke-width:0.324835"
       x="39.492073"
       y="109.3831"
       id="text6-4"
       transform="scale(1.0835331,0.92290672)"><tspan
         id="tspan6-7"
         style="font-style:normal;font-variant:normal;font-weight:normal;font-stretch:normal;font-size:21.3226px;font-family:'Beast Energy';-inkscape-font-specification:'Beast Energy, Normal';font-variant-ligatures:normal;font-variant-caps:all-small-caps;font-variant-numeric:normal;font-variant-east-asian:normal;fill:#ffffff;stroke:none;stroke-width:0.324835"
         x="39.492073"
         y="109.3831">SOLUTIONS</tspan></text>
  </g>
</svg>
